<?xml version="1.0" encoding="utf-8"?>
<!-- Generator: Adobe Illustrator 24.0.1, SVG Export Plug-In . SVG Version: 6.00 Build 0)  -->
<svg version="1.1" xmlns="http://www.w3.org/2000/svg" xmlns:xlink="http://www.w3.org/1999/xlink" x="0px" y="0px"
	 viewBox="0 0 2000 2000" style="enable-background:new 0 0 2000 2000;" xml:space="preserve">
<g id="Layer_1">
</g>
<g id="Layer_2">
	<path d="M918,1187c-0.33,0-0.67,0-1,0c-5.9-6.04-11.74-12.13-17.71-18.1c-30.33-30.37-60.7-60.69-91.02-91.06
		c-7.37-7.38-14.6-14.9-22.59-23.07c-1.47,1.96-2.23,3.28-3.28,4.33c-29.97,30.02-59.99,59.98-89.96,90.01
		c-12.54,12.57-24.97,25.26-37.45,37.89c-0.33,0-0.67,0-1,0c-23-23-46-46-69-69c0-0.33,0-0.67,0-1
		c9.65-9.64,19.29-19.29,28.94-28.93c29.21-29.15,58.39-58.33,87.66-87.42c4.89-4.86,10.17-9.33,15.76-14.44
		c-2.23-1.8-3.22-2.46-4.04-3.28c-29.9-29.88-59.77-59.8-89.69-89.67c-12.83-12.8-25.75-25.51-38.63-38.26c0-0.67,0-1.33,0-2
		c1.04-0.76,2.19-1.41,3.09-2.31c14.45-14.39,28.93-28.75,43.29-43.23c7.32-7.38,14.42-14.96,21.62-22.46c0.67,0,1.33,0,2,0
		c0.4,0.52,0.74,1.09,1.2,1.55c33.18,33.2,66.38,66.38,99.55,99.58c9.97,9.98,19.89,20.01,30.38,30.57
		c6.06-6.25,11.64-12.16,17.37-17.91c19.98-20.03,40.03-39.99,60.01-60.02c17.86-17.9,35.67-35.85,53.5-53.77c0.33,0,0.67,0,1,0
		c23,23,46,46,69,69c0,0.33,0,0.67,0,1c-0.88,0.71-1.83,1.35-2.63,2.15c-31.68,31.67-63.34,63.36-95.01,95.04
		c-11.16,11.16-22.34,22.29-33.7,33.62c1.43,1.5,2.53,2.71,3.69,3.87c25.67,25.68,51.33,51.37,77.03,77.02
		c16.84,16.8,33.75,33.54,50.63,50.31c0,0.33,0,0.67,0,1c-9.57,9.43-19.21,18.8-28.71,28.31C944.81,1159.81,931.43,1173.43,918,1187
		z"/>
</g>
</svg>
