<?xml version="1.0" encoding="utf-8"?>
<!-- Generator: Adobe Illustrator 24.0.1, SVG Export Plug-In . SVG Version: 6.00 Build 0)  -->
<svg version="1.1" id="Layer_1" xmlns="http://www.w3.org/2000/svg" xmlns:xlink="http://www.w3.org/1999/xlink" x="0px" y="0px"
	 viewBox="0 0 2000 2000" style="enable-background:new 0 0 2000 2000;" xml:space="preserve">
<style type="text/css">
	.st0{fill:#FFFFFF;}
</style>
<g>
	<path d="M919,974c0.67,0,1.33,0,2,0c8.76,12.2,17.52,24.4,26.57,37.01c1.78-1.57,3.03-2.59,4.19-3.7
		c10.68-10.19,21.38-20.36,31.97-30.64c2.51-2.44,4.34-2.31,6.55,0.33c2.54,3.04,5.38,5.83,8.11,8.71
		c7.86,8.28,15.73,16.55,24.1,25.35c10.69-12.57,21.1-24.81,31.51-37.05c0.67,0,1.33,0,2,0c10.56,12.24,21.11,24.48,31.94,37.03
		c11.06-12.78,21.56-24.91,32.06-37.03c0.67,0,1.33,0,2,0c10.24,12.33,20.48,24.66,30.98,37.3c1.69-1.37,2.99-2.34,4.2-3.41
		c11.3-10.01,22.58-20.06,33.89-30.06c2.53-2.24,5.46-3.02,7.93-0.28c2.36,2.63,1.83,5.52-0.81,7.91c-2.71,2.45-5.45,4.88-8.17,7.32
		c-12.34,11.07-24.68,22.15-37.02,33.22c-0.33,0-0.67,0-1,0c-10.35-12.2-20.71-24.4-31.32-36.91
		c-10.77,12.55-21.23,24.73-31.68,36.91c-0.67,0-1.33,0-2,0c-10.66-12.34-21.32-24.67-32.05-37.09c-1.28,1.58-2.09,2.63-2.94,3.64
		c-9.33,11.15-18.67,22.3-28,33.45c-0.67,0-1.33,0-2,0c-11.65-12.43-23.29-24.86-35.22-37.6c-3.23,3.06-6.13,5.74-8.96,8.5
		c-9.95,9.69-19.89,19.4-29.83,29.1c-0.67,0-1.33,0-2,0c-9.23-12.41-18.46-24.81-27.77-37.33c-7.73,6.65-15.06,12.83-22.24,19.17
		c-6.74,5.96-13.33,12.1-19.99,18.15c-1,0-2,0-3,0c0.01-0.32,0.17-0.75,0.02-0.95c-9.11-12-18.24-23.98-27.52-36.16
		c-1.19,0.89-2.15,1.51-2.99,2.26c-11.02,9.82-22.02,19.66-33.02,29.5c-4.09,3.66-6.62,3.5-10.49-0.66c0-1.33,0-2.67,0-4
		c15.67-14,31.33-28,47-42c0.33,0,0.67,0,1,0c9.6,12.37,19.19,24.74,28.98,37.36C890.72,998.56,904.86,986.28,919,974z"/>
	<path class="st0" d="M1054,974c-10.41,12.24-20.81,24.48-31.51,37.05c-8.36-8.8-16.24-17.07-24.1-25.35
		c-2.73-2.88-5.56-5.67-8.11-8.71c-2.21-2.64-4.04-2.77-6.55-0.33c-10.59,10.28-21.3,20.45-31.97,30.64
		c-1.16,1.11-2.4,2.13-4.19,3.7C938.52,998.4,929.76,986.2,921,974C965.33,974,1009.67,974,1054,974z"/>
	<path class="st0" d="M1153,1026c12.34-11.07,24.68-22.15,37.02-33.22c2.72-2.44,5.46-4.87,8.17-7.32c2.64-2.39,3.17-5.29,0.81-7.91
		c-2.47-2.74-5.4-1.96-7.93,0.28c-11.31,10.01-22.58,20.05-33.89,30.06c-1.21,1.07-2.51,2.04-4.2,3.41
		c-10.5-12.64-20.74-24.97-30.98-37.3c26.33,0,52.67,0,79,0c0,17.33,0,34.67,0,52C1185,1026,1169,1026,1153,1026z"/>
	<path class="st0" d="M948,1026c9.94-9.7,19.87-19.41,29.83-29.1c2.83-2.75,5.73-5.44,8.96-8.5c11.93,12.73,23.57,25.16,35.22,37.6
		C997.33,1026,972.67,1026,948,1026z"/>
	<path class="st0" d="M919,974c-14.14,12.28-28.28,24.56-43.02,37.36C866.19,998.74,856.6,986.37,847,974C871,974,895,974,919,974z"
		/>
	<path class="st0" d="M799,1020c3.87,4.16,6.4,4.32,10.49,0.66c11-9.84,22-19.68,33.02-29.5c0.84-0.75,1.8-1.37,2.99-2.26
		c9.28,12.18,18.41,24.16,27.52,36.16c0.15,0.2-0.01,0.63-0.02,0.95c-24.67,0-49.33,0-74,0C799,1023.98,799,1021.99,799,1020z"/>
	<path class="st0" d="M876,1026c6.66-6.06,13.24-12.19,19.99-18.15c7.18-6.34,14.51-12.52,22.24-19.17
		c9.31,12.51,18.54,24.92,27.77,37.33C922.67,1026,899.33,1026,876,1026z"/>
	<path class="st0" d="M1120,974c-10.5,12.13-20.99,24.25-32.06,37.03c-10.83-12.56-21.39-24.8-31.94-37.03
		C1077.33,974,1098.67,974,1120,974z"/>
	<path class="st0" d="M1024,1026c9.33-11.15,18.67-22.3,28-33.45c0.85-1.02,1.67-2.06,2.94-3.64
		c10.73,12.42,21.39,24.76,32.05,37.09C1066,1026,1045,1026,1024,1026z"/>
	<path class="st0" d="M1089,1026c10.45-12.18,20.9-24.35,31.68-36.91c10.61,12.51,20.97,24.71,31.32,36.91
		C1131,1026,1110,1026,1089,1026z"/>
	<path class="st0" d="M846,974c-15.67,14-31.33,28-47,42c0-14,0-28,0-42C814.67,974,830.33,974,846,974z"/>
</g>
</svg>
